<?xml version="1.0" encoding="utf-8"?>
<!-- Generator: Adobe Illustrator 21.0.2, SVG Export Plug-In . SVG Version: 6.00 Build 0)  -->
<svg version="1.1" id="Layer_1" xmlns="http://www.w3.org/2000/svg" xmlns:xlink="http://www.w3.org/1999/xlink" x="0px" y="0px"
	 viewBox="0 0 248.8 70.7" style="enable-background:new 0 0 248.8 70.7;" xml:space="preserve">
<style type="text/css">
	.st0{fill:#6AB466;}
	.st1{fill:#434342;}
</style>
<g>
	<path class="st0" d="M21.2,15.2l0,0.2h-2.5l0-0.2c-0.3-1.5-1.2-2.4-2.9-2.4c-2,0-3.3,1.7-3.3,4.5c0,3.1,1.4,4.7,3.3,4.7
		c1.6,0,2.6-1,2.9-2.5l0-0.2h2.5l0,0.2c-0.3,2.6-2.3,4.4-5.5,4.4c-3.5,0-5.8-2.4-5.8-6.4c0-4.1,2.6-6.5,6-6.5
		C19.2,10.9,21,12.8,21.2,15.2z"/>
	<path class="st0" d="M36.1,18.5c0,0.5,0,0.9,0,1.5c-0.2,2.1-1.6,3.9-5.1,3.9c-3.5,0-4.9-1.8-5.1-3.9c0-0.6,0-0.9,0-1.5v-7.4h2.5
		v7.6c0,0.4,0,0.6,0,0.9c0.1,1.4,1,2.3,2.6,2.3c1.6,0,2.5-0.9,2.6-2.3c0-0.3,0-0.5,0-0.9v-7.6h2.5V18.5z"/>
	<path class="st0" d="M49.8,14.8h-2.5c-0.1-1.3-0.8-2.1-2.1-2.1c-1,0-1.7,0.5-1.7,1.5c0,1,0.7,1.6,2.6,2c2.7,0.6,4,1.9,4,3.9
		c0,2.3-2.1,3.7-4.6,3.7c-3,0-4.9-1.3-5.1-3.9h2.5c0.3,1.4,1.3,2.1,2.6,2.1c1.1,0,2-0.6,2-1.6c0-1-0.6-1.7-2.5-2.1
		c-2.5-0.6-4.1-1.5-4.1-3.8s2.1-3.6,4.4-3.6C48.2,10.9,49.6,12.6,49.8,14.8z"/>
	<path class="st0" d="M60.1,13.1v10.5h-2.5V13.1h-4.2v-1.9h10.9v1.9H60.1z"/>
	<path class="st0" d="M79.6,17.4c0,3.9-2.3,6.5-6.1,6.5c-3.8,0-6.1-2.6-6.1-6.5c0-3.9,2.3-6.5,6.1-6.5
		C77.3,10.9,79.6,13.5,79.6,17.4z M77,17.4c0-2.9-1.3-4.6-3.5-4.6c-2.2,0-3.5,1.7-3.5,4.6c0,2.9,1.3,4.6,3.5,4.6
		C75.7,22,77,20.3,77,17.4z"/>
	<path class="st0" d="M97.7,23.6h-2.5v-5.7c0-1.3,0-3,0-4.2c-0.3,1.3-0.8,3-1.2,4.2l-1.7,5.8h-2.7l-1.8-5.8
		c-0.4-1.3-0.8-2.9-1.1-4.2c0,1.3,0,2.9,0,4.2v5.7h-2.5V11.2h3.9l2.8,10.1l2.8-10.1h3.9V23.6z"/>
	<path class="st0" d="M111.7,14.8h-2.5c-0.1-1.3-0.8-2.1-2.1-2.1c-1,0-1.7,0.5-1.7,1.5c0,1,0.7,1.6,2.6,2c2.7,0.6,4,1.9,4,3.9
		c0,2.3-2.1,3.7-4.6,3.7c-3,0-4.9-1.3-5.1-3.9h2.5c0.3,1.4,1.3,2.1,2.6,2.1c1.1,0,2-0.6,2-1.6c0-1-0.6-1.7-2.5-2.1
		c-2.5-0.6-4.1-1.5-4.1-3.8s2.1-3.6,4.4-3.6C110.1,10.9,111.4,12.6,111.7,14.8z"/>
	<path class="st1" d="M19.6,38.1v21.5h-2.1V38.1H9v-1.7h19.1v1.7H19.6z"/>
	<path class="st1" d="M47.5,59.6h-2.3c-0.6-1.5-1-2.9-1.3-6c-0.3-2.5-1.3-4.4-3.8-4.5c-0.6,0-1.3,0-1.8,0h-4.8v10.5h-2.1V36.4h6.8
		c1.2,0,2.1,0,3.2,0.1c3.4,0.4,5.7,2.3,5.7,6c0,3.1-2,4.9-4.4,5.5c2,0.8,3,2.9,3.2,5.4C46.3,56.6,46.7,58.3,47.5,59.6z M38.3,47.3
		c1,0,1.6,0,2.4-0.1c2.6-0.2,4.2-1.9,4.2-4.6s-1.4-4.1-4-4.4c-0.8-0.1-1.5-0.1-2.7-0.1h-4.8v9.2H38.3z"/>
	<path class="st1" d="M54.7,51.1l-3,8.5h-2.2L58,36.4h2.8l8.4,23.2H67l-3-8.5H54.7z M63.3,49.3L59.4,38l-4.1,11.3H63.3z"/>
	<path class="st1" d="M91.8,47.8c0,7.3-4.6,11.1-9.1,11.7c-1.2,0.1-1.8,0.1-3,0.1h-6.8V36.4h6.9c1.2,0,1.8,0,2.8,0.1
		C87.3,37,91.8,40.4,91.8,47.8z M89.5,47.8c0-6-3.3-9-7.1-9.6c-0.7-0.1-1.5-0.1-2.7-0.1H75v19.7h4.6c1.1,0,2,0,2.9-0.1
		C86.3,57.1,89.5,53.8,89.5,47.8z"/>
	<path class="st1" d="M111.5,59.6H96.4V36.4h14.7v1.7H98.5v9h11.8v1.8H98.5v9h13V59.6z"/>
	<path class="st1" d="M138.2,43c0,4-2.6,6.2-5.9,6.6c-1,0.1-2,0.1-3.1,0.1h-4.3v9.8h-2.1V36.4h6.4c1.2,0,2.1,0,3.1,0.1
		C135.8,37,138.2,39.1,138.2,43z M135.9,43c0-3-1.7-4.3-3.8-4.7c-0.8-0.1-1.7-0.2-2.8-0.2h-4.5V48h4.5c1.1,0,2,0,2.8-0.2
		C134.2,47.5,135.9,46.1,135.9,43z"/>
	<path class="st1" d="M161.8,48c0,7-4,12.1-10.8,12.1c-6.8,0-10.8-5.1-10.8-12.1c0-7.1,4-12.1,10.8-12.1
		C157.8,35.9,161.8,40.9,161.8,48z M159.5,48c0-6.5-3.5-10.4-8.5-10.4c-5,0-8.5,3.9-8.5,10.4c0,6.5,3.5,10.4,8.5,10.4
		C156,58.4,159.5,54.5,159.5,48z"/>
	<path class="st1" d="M182.5,59.6h-2.3c-0.6-1.5-1-2.9-1.3-6c-0.3-2.5-1.3-4.4-3.8-4.5c-0.6,0-1.3,0-1.8,0h-4.8v10.5h-2.1V36.4h6.8
		c1.2,0,2.1,0,3.2,0.1c3.4,0.4,5.7,2.3,5.7,6c0,3.1-2,4.9-4.4,5.5c2,0.8,3,2.9,3.2,5.4C181.3,56.6,181.7,58.3,182.5,59.6z
		 M173.3,47.3c1,0,1.6,0,2.4-0.1c2.6-0.2,4.2-1.9,4.2-4.6s-1.4-4.1-4-4.4c-0.8-0.1-1.6-0.1-2.7-0.1h-4.8v9.2H173.3z"/>
	<path class="st1" d="M195.1,38.1v21.5H193V38.1h-8.5v-1.7h19.1v1.7H195.1z"/>
	<path class="st1" d="M207.8,51.1l-3,8.5h-2.2l8.6-23.2h2.8l8.4,23.2h-2.3l-3-8.5H207.8z M216.4,49.3L212.5,38l-4.1,11.3H216.4z"/>
	<path class="st1" d="M241.1,59.6h-15.1V36.4h2.1v21.5h13V59.6z"/>
</g>
</svg>
