<?xml version="1.0" encoding="utf-8"?>
<!-- Generator: Adobe Illustrator 21.0.2, SVG Export Plug-In . SVG Version: 6.00 Build 0)  -->
<svg version="1.1" id="Layer_1" xmlns="http://www.w3.org/2000/svg" xmlns:xlink="http://www.w3.org/1999/xlink" x="0px" y="0px"
	 viewBox="0 0 260 260.2" style="enable-background:new 0 0 260 260.2;" xml:space="preserve">
<style type="text/css">
	.st0{fill:#0F47AF;}
	.st1{fill:#FCDD09;}
	.st2{stroke:#FCDD09;stroke-width:4;}
</style>
<circle class="st0" cx="130" cy="130.1" r="120"/>
<path class="st1" d="M130,34.1l-4.2,12.9l17.3,53.4H120l-2.6,8h74.2l11-8h-51L130,34.1z"/>
<path class="st2" d="M155.9,94.5l30.6-42.1"/>
<path class="st1" d="M221.3,100.4h-13.6l-45.4,33l-7.1-22h-8.4l22.9,70.5l11,8l-15.8-48.5L221.3,100.4z"/>
<path class="st2" d="M171.8,143.7l49.5,16.1"/>
<path class="st1" d="M186.4,207.8l-4.2-12.9l-45.4-33l18.7-13.6l-2.6-8l-60,43.6l-4.2,12.9l41.3-30L186.4,207.8z"/>
<path class="st2" d="M130,174.1v52"/>
<path class="st1" d="M73.6,207.8l11-8l17.3-53.4l18.7,13.6l6.8-4.9l-60-43.6l-13.6,0l41.3,30L73.6,207.8z"/>
<path class="st2" d="M88.2,143.7l-49.5,16.1"/>
<path class="st1" d="M38.7,100.4l11,8h56.1l-7.1,22l6.8,4.9l22.9-70.5l-4.2-12.9l-15.8,48.5H38.7z"/>
<path class="st2" d="M104.1,94.5L73.6,52.4"/>
</svg>
